<?xml version="1.0" encoding="UTF-8" standalone="no"?>
<!-- Created with Inkscape (http://www.inkscape.org/) -->

<svg
   width="512mm"
   height="512mm"
   viewBox="0 0 512 512"
   version="1.1"
   id="svg5"
   inkscape:version="1.1.2 (0a00cf5339, 2022-02-04)"
   sodipodi:docname="Sforzato.svg"
   inkscape:export-filename="/home/tomoaki/Sforzato.png"
   inkscape:export-xdpi="96"
   inkscape:export-ydpi="96"
   xmlns:inkscape="http://www.inkscape.org/namespaces/inkscape"
   xmlns:sodipodi="http://sodipodi.sourceforge.net/DTD/sodipodi-0.dtd"
   xmlns:xlink="http://www.w3.org/1999/xlink"
   xmlns="http://www.w3.org/2000/svg"
   xmlns:svg="http://www.w3.org/2000/svg">
  <sodipodi:namedview
     id="namedview7"
     pagecolor="#ffffff"
     bordercolor="#111111"
     borderopacity="1"
     inkscape:pageshadow="0"
     inkscape:pageopacity="0"
     inkscape:pagecheckerboard="1"
     inkscape:document-units="mm"
     showgrid="false"
     width="512mm"
     inkscape:zoom="0.24526387"
     inkscape:cx="925.53379"
     inkscape:cy="1318.9876"
     inkscape:window-width="1920"
     inkscape:window-height="1011"
     inkscape:window-x="0"
     inkscape:window-y="32"
     inkscape:window-maximized="1"
     inkscape:current-layer="layer1" />
  <defs
     id="defs2">
    <linearGradient
       inkscape:collect="always"
       id="linearGradient1105">
      <stop
         style="stop-color:#000000;stop-opacity:1;"
         offset="0"
         id="stop1101" />
      <stop
         style="stop-color:#4d4d4d;stop-opacity:1"
         offset="1"
         id="stop1103" />
    </linearGradient>
    <linearGradient
       inkscape:collect="always"
       xlink:href="#linearGradient1105"
       id="linearGradient1107"
       x1="260.36227"
       y1="-0.67497694"
       x2="265.56116"
       y2="514.28351"
       gradientUnits="userSpaceOnUse" />
  </defs>
  <g
     inkscape:label="Layer 1"
     inkscape:groupmode="layer"
     id="layer1">
    <circle
       style="fill:url(#linearGradient1107);stroke-width:0.264583;fill-opacity:1"
       id="path846"
       cx="256"
       cy="256"
       r="256" />
    <path
       d="m 190.7269,223.90032 c 0,3.56992 -1.87754,6.47964 -5.62827,8.72857 -3.75254,2.24946 -8.12826,3.37363 -13.12681,3.37363 -3.96245,0 -6.93238,-0.69755 -8.91016,-2.09535 -1.97922,-1.39778 -3.48997,-3.18033 -4.53152,-5.35138 -1.04227,-2.17105 -1.87754,-4.45892 -2.49854,-6.8644 -0.62464,-2.40626 -1.45628,-4.69329 -2.49855,-6.86436 -1.04227,-2.17105 -2.6075,-3.95437 -4.69349,-5.35139 -2.08455,-1.39779 -5.21173,-2.09536 -9.37755,-2.09536 -14.37972,0 -21.56922,5.89485 -21.56922,17.6845 0,4.34673 4.79191,9.31096 14.37646,14.89324 9.80026,5.74341 17.46078,10.32208 22.98119,13.73577 5.52004,3.41367 9.63502,6.40013 12.34456,8.95945 2.70918,2.56038 4.37682,5.00235 5.00363,7.32941 0.62827,2.32787 0.94059,5.35167 0.94059,9.07298 0,5.12321 -1.56159,9.66269 -4.68877,13.61843 -3.12682,3.95606 -7.5029,7.33079 -13.13154,10.12423 -5.62827,2.7937 -12.24578,4.88743 -19.85219,6.28201 -7.60641,1.39508 -15.89011,2.09265 -24.8511,2.09265 -7.29482,0 -14.27622,-0.61917 -20.94459,-1.86018 -6.66799,-1.24096 -12.50326,-3.02429 -17.50544,-5.35162 -5.00182,-2.3279 -9.01329,-5.11946 -12.03407,-8.37708 C 57.51002,292.32666 56,288.68075 56,284.64687 c 0,-10.24154 6.04518,-15.36205 18.13517,-15.36205 5.41836,0 9.74143,1.27883 12.9692,3.83869 3.2285,2.56038 4.8413,5.85561 4.8413,9.88981 0,1.08956 -0.32684,2.64148 -0.93332,4.65897 -0.62464,2.01693 -0.93696,3.48961 -0.93696,4.41752 0,3.10601 2.29155,5.66773 6.87827,7.68468 4.58527,2.01693 9.37754,3.02542 14.37645,3.02542 17.29881,0 25.94822,-5.81886 25.94822,-17.45712 0,-2.48197 -1.35459,-5.00237 -4.06414,-7.56383 -2.70918,-2.56038 -6.14831,-5.1989 -10.31704,-7.91177 -4.16908,-2.71314 -8.6494,-5.46628 -13.44167,-8.26 -4.79228,-2.79345 -9.27259,-5.74209 -13.44168,-8.84564 -4.16872,-3.1038 -7.60786,-6.28443 -10.31704,-9.54182 -2.70918,-3.25769 -4.06377,-6.67132 -4.06377,-10.24155 0,-4.96205 1.51075,-9.45987 4.53116,-13.49405 3.0215,-4.03416 7.13756,-7.44784 12.34929,-10.24156 5.21172,-2.7934 11.25544,-4.96557 18.13044,-6.51611 6.87464,-1.55191 14.27441,-2.32516 22.19894,-2.32516 16.24928,0 28.95918,2.05481 38.13045,6.16465 9.17054,4.10984 13.75618,9.88872 13.75618,17.33654 z m 172.30716,-49.33188 c -6.67163,0 -12.50835,-1.3194 -17.51016,-3.95952 -5.00218,-2.6388 -7.50327,-5.97649 -7.50327,-10.01063 0,-4.96183 3.13044,-9.77006 9.38698,-14.42471 l 9.68296,-7.21585 c 0,-0.46232 -0.46848,-0.88949 -1.40543,-1.27882 -0.93696,-0.38934 -2.0337,-0.73811 -3.28298,-1.04633 -1.24927,-0.31092 -2.55302,-0.54345 -3.90652,-0.70025 -1.35459,-0.16206 -2.4477,-0.24332 -3.28297,-0.24332 -5.832,0.16205 -10.88503,2.09533 -15.1587,5.82019 -4.27405,3.72433 -8.18202,8.68854 -11.72429,14.89351 -3.54445,6.20491 -7.03261,13.41968 -10.46993,21.64374 -3.43914,8.22461 -7.13757,16.91286 -11.09965,26.06511 h 12.19204 c 6.46136,2.6e-4 11.61933,0.027 15.47319,0.10837 3.85387,0.0813 6.82416,0.18909 8.91016,0.34876 2.08454,0.16206 3.49361,0.38663 4.22138,0.69485 0.72995,0.31092 1.09312,0.70027 1.09312,1.16798 0,0.16205 -0.10895,0.8165 -0.32685,1.97639 -0.2179,1.16259 -0.62464,2.40357 -1.24927,3.72163 -0.62464,1.31938 -1.40544,2.52252 -2.34239,3.60805 -0.93696,1.08686 -2.13539,1.63031 -3.59166,1.63031 h -39.07503 c -13.75618,29.6353 -26.78276,54.96419 -39.07939,75.98666 -12.29699,21.02247 -24.90521,38.24407 -37.82503,51.66489 -12.92018,13.42075 -26.62224,23.27274 -41.10691,29.55579 -14.48468,6.28309 -30.79278,9.4245 -48.92468,9.42476 -4.37537,-2.6e-4 -8.54264,-0.65969 -12.50182,-1.97911 -3.95882,-1.31936 -7.3965,-3.10379 -10.31232,-5.35518 -2.91618,-2.25216 -5.25966,-4.85092 -7.03079,-7.7982 -1.77223,-2.94756 -2.65834,-6.05005 -2.65834,-9.3074 0,-5.73858 2.29154,-10.39295 6.87318,-13.9629 4.58237,-3.5702 10.62609,-5.3552 18.13045,-5.3552 6.04191,0 11.04227,1.43566 15.00145,4.30752 3.95882,2.87159 5.93841,6.55642 5.93841,11.05453 0,1.55194 -0.62464,3.37609 -1.87391,5.46876 -1.24927,2.09262 -2.65471,4.03171 -4.21666,5.81666 -1.56159,1.78447 -2.96703,3.25983 -4.21666,4.42487 -1.24928,1.16528 -1.87391,1.66814 -1.87391,1.51404 0,0.46503 0.62463,0.69485 1.87027,0.69485 4.79555,0 12.09036,-2.01695 21.88445,-6.05109 7.29481,-3.10112 13.70206,-7.87151 19.22247,-14.31085 5.52041,-6.43937 11.14722,-15.47697 16.88045,-27.11276 5.73358,-11.63585 12.14265,-26.2579 19.22755,-43.86668 7.08491,-17.60852 15.94095,-39.21362 26.56813,-64.81476 h -34.07612 c -3.54082,0 -5.3134,-1.93853 -5.3134,-5.8167 0,-4.96666 2.18622,-7.45 6.5634,-7.45026 h 39.70439 c 4.99891,-11.32543 11.19807,-21.68162 18.59747,-31.06852 7.39977,-9.38662 15.68492,-17.41575 24.85619,-24.08707 9.17054,-6.67108 19.06958,-11.82968 29.69713,-15.47589 C 322.69741,129.82283 333.74114,128 345.20177,128 c 5.83818,0 11.36186,0.58129 16.57067,1.74388 5.20846,1.16256 9.84457,2.79154 13.9087,4.88635 4.06378,2.09536 7.29482,4.61681 9.69241,7.56412 2.39686,2.94724 3.59529,6.28439 3.59529,10.01037 0,6.51529 -2.4477,11.86805 -7.34529,16.0582 -4.89723,4.19046 -11.0982,6.28553 -18.60256,6.28525 z m 92.96485,38.16 c -3.6e-4,0.46775 -2.08454,2.17645 -6.24855,5.12428 -4.16582,2.94756 -9.53188,6.67136 -16.0982,11.1719 -6.56667,4.50025 -13.96499,9.42689 -22.19458,14.77962 -8.22959,5.35276 -16.40834,10.66632 -24.53624,15.94094 -8.12791,5.2746 -15.89156,10.16069 -23.29133,14.65879 -7.3994,4.4981 -13.49688,8.0659 -18.29242,10.70305 l 1.26017,0.46776 c 6.04155,-2.6361 14.37646,-3.95606 25.00363,-3.95606 1.45628,0 3.80012,0.3488 7.0308,1.04633 3.23213,0.69755 6.61716,1.43566 10.15979,2.20891 3.54082,0.77327 6.87645,1.51136 10.00254,2.20893 3.12682,0.69755 5.31486,1.04631 6.56813,1.04631 1.87754,0 3.80302,-0.61914 5.78116,-1.86012 1.97923,-1.241 2.96703,-2.55767 2.96703,-3.95578 -3.7e-4,-0.77595 -0.25422,-1.97909 -0.77717,-3.60805 -0.51932,-1.6276 -0.77716,-2.83128 -0.77716,-3.60778 -3.7e-4,-4.34182 2.39323,-6.51265 7.18332,-6.51291 8.12754,2.6e-4 12.19168,3.02569 12.19168,9.07682 0,4.49808 -1.24928,8.76398 -3.74891,12.79812 -2.49855,4.03388 -5.83382,7.5638 -10.00254,10.58922 -4.16909,3.0257 -9.01511,5.46902 -14.53843,7.32969 -5.52368,1.86012 -11.2017,2.79101 -17.03334,2.79101 -3.75254,0 -7.60822,-0.54074 -11.56703,-1.62493 -3.95919,-1.08416 -8.02332,-2.28459 -12.19204,-3.60455 -4.16873,-1.31936 -8.38866,-2.5225 -12.65907,-3.60778 -4.27077,-1.08685 -8.59711,-1.6303 -12.97901,-1.6303 -2.28791,0 -4.8413,0.38662 -7.65543,1.16255 -2.8145,0.77327 -5.47138,1.58977 -7.97066,2.44416 -2.49855,0.85437 -4.68732,1.67087 -6.56341,2.4468 -1.87754,0.77597 -3.02513,1.1653 -3.44276,1.1653 -0.2179,0 -0.92969,-0.0811 -2.17897,-0.24334 -1.24927,-0.16205 -2.55302,-0.35147 -3.90652,-0.58127 -1.35459,-0.24332 -2.6075,-0.46504 -3.75399,-0.70027 -1.14759,-0.24332 -1.72139,-0.42719 -1.72139,-0.57858 0,-2.79345 1.92839,-5.93619 5.7808,-9.42801 3.85423,-3.49205 10.31413,-8.06938 19.38008,-13.73224 9.06595,-5.66258 20.89374,-12.87735 35.48337,-21.64378 14.58927,-8.76667 32.72117,-19.89693 54.39534,-33.39123 -1.66691,0.46501 -6.77332,0.69481 -15.32067,0.69481 -1.66691,0 -4.01003,-0.10797 -7.0308,-0.34875 -3.0215,-0.24332 -6.14686,-0.50288 -9.37754,-0.81381 -3.23213,-0.31092 -6.35677,-0.5813 -9.37754,-0.81649 -3.0215,-0.24336 -5.36789,-0.35151 -7.04061,-0.35151 -2.70918,0 -5.36606,0.69755 -7.97029,2.09537 -2.60386,1.3978 -5.10386,2.98783 -7.49818,4.77251 -2.39323,1.78443 -4.58237,3.3761 -6.56341,4.77284 -1.98286,1.39778 -3.69988,2.09533 -5.15616,2.09533 -3.75218,2.8e-4 -5.62863,-0.77595 -5.62863,-2.33056 0,-1.70873 1.14759,-4.42457 3.43913,-8.1462 2.29155,-3.72135 5.05302,-7.48327 8.2808,-11.28542 3.2285,-3.80194 6.66473,-7.13771 10.31232,-10.00713 3.64722,-2.86914 6.82561,-4.3037 9.53479,-4.3037 6.67163,0 11.93419,0.34874 15.78842,1.04361 3.85386,0.69484 7.50145,1.43293 10.94204,2.20891 3.43913,0.77597 7.24397,1.51406 11.40943,2.21161 4.16582,0.69753 9.79409,1.04631 16.88553,1.04631 1.87028,0 4.26423,-0.34878 7.18332,-1.04631 2.91982,-0.69755 5.94168,-1.43564 9.06777,-2.21161 3.12681,-0.77598 6.09566,-1.51136 8.91015,-2.20891 2.8145,-0.69487 5.05411,-1.04361 6.72066,-1.04361 1.24564,0 2.13175,1.00847 2.65107,3.0254 0.52296,2.01695 0.7808,3.72159 0.7808,5.11375 v 0.93007 z"
       style="font-style:normal;font-weight:normal;font-size:32.5331px;font-family:Arial;text-align:center;text-anchor:middle;fill:#ffffff;fill-opacity:1;stroke:none;stroke-width:8.29066px;stroke-linecap:butt;stroke-linejoin:miter;stroke-opacity:1"
       id="text3259" />
  </g>
</svg>
